<svg id="Group_3" data-name="Group 3" xmlns="http://www.w3.org/2000/svg" width="67.83" height="27.047" viewBox="0 0 67.83 27.047">
  <path id="Path" d="M19.681,25.309H12.316V15.5H7.546v9.808H0V0H7.546V9.442h4.77V0h7.365Z" transform="translate(0 1.624)"/>
  <path id="Combined_Shape" data-name="Combined Shape" d="M32.268,25.845a13.911,13.911,0,0,1-8.686-2.851A13.581,13.581,0,0,1,19.832,18.6a6.924,6.924,0,0,1-2.271,4.812,8.427,8.427,0,0,1-5.848,2.318H0V.423H12.587a7.33,7.33,0,0,1,5.082,2.265A6.877,6.877,0,0,1,19.832,7.3a12.429,12.429,0,0,1,3.705-4.443A14.011,14.011,0,0,1,32.268,0,14.137,14.137,0,0,1,41.95,3.71a12.374,12.374,0,0,1,4.022,9.142,12.575,12.575,0,0,1-4.022,9.171A13.986,13.986,0,0,1,32.268,25.845ZM7.034,15.557v4.284h3.743a2.15,2.15,0,0,0,0-4.284ZM32.268,6.426a6.673,6.673,0,0,0-6.882,6.426,6.686,6.686,0,0,0,6.882,6.455,6.686,6.686,0,0,0,6.881-6.455A6.673,6.673,0,0,0,32.268,6.426ZM18.564,11.3a5.878,5.878,0,0,1-2.838,1.55A5.721,5.721,0,0,1,18.564,14.8,9.8,9.8,0,0,1,18.564,11.3ZM7.034,6.06v4.227h3.743a2.069,2.069,0,0,0,1.962-2.113A2.07,2.07,0,0,0,10.777,6.06Z" transform="translate(21.19 1.201)"/>
  <path id="Path-2" data-name="Path" d="M0,1.633A1.647,1.647,0,0,1,1.715,0a1.641,1.641,0,1,1,0,3.279A1.647,1.647,0,0,1,0,1.633Z" transform="translate(63.988 0.33)"/>
  <path id="Path-3" data-name="Path" d="M2.141,3.934A2.038,2.038,0,0,0,4.267,1.963,2.037,2.037,0,0,0,2.141,0,2.042,2.042,0,0,0,0,1.963,2.043,2.043,0,0,0,2.141,3.934Z" transform="translate(63.563 0)"/>
  <path id="Path-4" data-name="Path" d="M.367,1.285H.791l.641.984h.413l-.691-1c.355-.041.63-.218.63-.625C1.784.2,1.5,0,.924,0H0V2.269H.367Z" transform="translate(64.89 0.833)"/>
  <path id="Path-5" data-name="Path" d="M0,.7V0H.5c.257,0,.531.049.531.332C1.032.681.753.7.441.7Z" transform="translate(65.256 1.127)"/>
</svg>
