<svg xmlns="http://www.w3.org/2000/svg" width="198.54" height="48.105" viewBox="0 0 198.54 48.105">
  <path id="wow" d="M89.618,46.417a21.737,21.737,0,0,1-7.56-4.815,21.318,21.318,0,0,1-4.9-7.6A27.693,27.693,0,0,1,75.42,23.94a27.2,27.2,0,0,1,1.733-9.967,21.174,21.174,0,0,1,4.9-7.538,21.634,21.634,0,0,1,7.56-4.77A27.273,27.273,0,0,1,99.36,0a26.957,26.957,0,0,1,9.675,1.665,21.221,21.221,0,0,1,7.493,4.77,21.481,21.481,0,0,1,4.86,7.538,27.2,27.2,0,0,1,1.732,9.967A27.693,27.693,0,0,1,121.388,34a21.628,21.628,0,0,1-4.86,7.6,21.323,21.323,0,0,1-7.493,4.815A26.629,26.629,0,0,1,99.36,48.1,26.94,26.94,0,0,1,89.618,46.417Zm83.093.968a2.271,2.271,0,0,1-1.53-.54,3.639,3.639,0,0,1-.99-1.8L163.53,21.78q-.45-1.575-.855-3.1t-.72-3.06q-.315,1.575-.7,3.127t-.878,3.128l-6.75,23.175a2.871,2.871,0,0,1-2.97,2.34h-10.8L125.37.72h11.16a4.74,4.74,0,0,1,2.565.675A2.69,2.69,0,0,1,140.4,3.15l4.68,20.925q.54,2.385.99,4.635t.81,4.455q.63-2.2,1.327-4.433t1.372-4.657l5.85-20.97a2.985,2.985,0,0,1,1.3-1.732,4.165,4.165,0,0,1,2.385-.7h6.21a4.51,4.51,0,0,1,2.542.7A2.967,2.967,0,0,1,169.2,3.105l5.58,20.97q.63,2.385,1.283,4.635t1.238,4.545q.36-2.25.878-4.478t1.1-4.7L184.23,3.15a2.705,2.705,0,0,1,1.282-1.755A4.377,4.377,0,0,1,187.92.72h10.62L184.05,47.385Zm-125.37,0a2.271,2.271,0,0,1-1.53-.54,3.639,3.639,0,0,1-.99-1.8L38.16,21.78q-.45-1.575-.855-3.1t-.72-3.06q-.315,1.575-.7,3.127T35.01,21.87L28.26,45.045a2.871,2.871,0,0,1-2.97,2.34H14.49L0,.72H11.16a4.74,4.74,0,0,1,2.565.675A2.69,2.69,0,0,1,15.03,3.15l4.68,20.925q.54,2.385.99,4.635t.81,4.455q.63-2.2,1.327-4.433t1.373-4.657l5.85-20.97a2.985,2.985,0,0,1,1.305-1.732,4.165,4.165,0,0,1,2.385-.7h6.21a4.51,4.51,0,0,1,2.543.7A2.967,2.967,0,0,1,43.83,3.105l5.58,20.97q.63,2.385,1.283,4.635t1.237,4.545q.36-2.25.878-4.478t1.1-4.7L58.86,3.15a2.705,2.705,0,0,1,1.283-1.755A4.377,4.377,0,0,1,62.55.72H73.17L58.68,47.385Z" fill="#fff"/>
</svg>
